<?xml version="1.0" encoding="UTF-8" standalone="no"?>
<!DOCTYPE svg PUBLIC "-//W3C//DTD SVG 1.1//EN"
 "http://www.w3.org/Graphics/SVG/1.1/DTD/svg11.dtd">
<!-- Generated by graphviz version 14.1.5 (0)
 -->
<!-- Title: AST Pages: 1 -->
<svg width="1126pt" height="404pt"
 viewBox="0.00 0.00 1126.00 404.00" xmlns="http://www.w3.org/2000/svg" xmlns:xlink="http://www.w3.org/1999/xlink">
<g id="graph0" class="graph" transform="scale(1 1) rotate(0) translate(4 400)">
<title>AST</title>
<polygon fill="white" stroke="none" points="-4,4 -4,-400 1121.57,-400 1121.57,4 -4,4"/>
<!-- n0 -->
<g id="node1" class="node">
<title>n0</title>
<polygon fill="lightblue" stroke="black" points="406.75,-396 316.5,-396 316.5,-360 406.75,-360 406.75,-396"/>
<text xml:space="preserve" text-anchor="middle" x="361.62" y="-373.32" font-family="Courier,monospace" font-size="14.00">StartRule</text>
</g>
<!-- n1 -->
<g id="node2" class="node">
<title>n1</title>
<polygon fill="white" stroke="black" points="123.25,-324 0,-324 0,-288 123.25,-288 123.25,-324"/>
<text xml:space="preserve" text-anchor="middle" x="61.62" y="-301.32" font-family="Courier,monospace" font-size="14.00">Library: ieee</text>
</g>
<!-- n0&#45;&gt;n1 -->
<g id="edge1" class="edge">
<title>n0&#45;&gt;n1</title>
<path fill="none" stroke="black" d="M316.2,-366.7C272.14,-356.67 203.09,-340.85 134.46,-324.66"/>
<polygon fill="black" stroke="black" points="135.46,-321.3 124.92,-322.41 133.85,-328.11 135.46,-321.3"/>
</g>
<!-- n2 -->
<g id="node3" class="node">
<title>n2</title>
<polygon fill="white" stroke="black" points="388.12,-324 141.12,-324 141.12,-288 388.12,-288 388.12,-324"/>
<text xml:space="preserve" text-anchor="middle" x="264.62" y="-301.32" font-family="Courier,monospace" font-size="14.00">Use: ieee.std_logic_1164.all</text>
</g>
<!-- n0&#45;&gt;n2 -->
<g id="edge2" class="edge">
<title>n0&#45;&gt;n2</title>
<path fill="none" stroke="black" d="M337.65,-359.7C325.64,-351.03 310.91,-340.4 297.83,-330.96"/>
<polygon fill="black" stroke="black" points="300.05,-328.25 289.89,-325.23 295.95,-333.92 300.05,-328.25"/>
</g>
<!-- n3 -->
<g id="node7" class="node">
<title>n3</title>
<polygon fill="lightgreen" stroke="black" points="513,-324 406.25,-324 406.25,-288 513,-288 513,-324"/>
<text xml:space="preserve" text-anchor="middle" x="459.62" y="-301.32" font-family="Courier,monospace" font-size="14.00">Entity: eq1</text>
</g>
<!-- n0&#45;&gt;n3 -->
<g id="edge6" class="edge">
<title>n0&#45;&gt;n3</title>
<path fill="none" stroke="black" d="M386.1,-359.52C398.24,-350.85 413.08,-340.25 426.24,-330.85"/>
<polygon fill="black" stroke="black" points="428.13,-333.8 434.23,-325.14 424.06,-328.1 428.13,-333.8"/>
</g>
<!-- n7 -->
<g id="node8" class="node">
<title>n7</title>
<polygon fill="bisque" stroke="black" points="808.25,-324 619,-324 619,-288 808.25,-288 808.25,-324"/>
<text xml:space="preserve" text-anchor="middle" x="713.62" y="-301.32" font-family="Courier,monospace" font-size="14.00">Arch: sop_arch of eq1</text>
</g>
<!-- n0&#45;&gt;n7 -->
<g id="edge7" class="edge">
<title>n0&#45;&gt;n7</title>
<path fill="none" stroke="black" d="M406.92,-367.99C459.16,-357.6 546.6,-340.22 614.77,-326.66"/>
<polygon fill="black" stroke="black" points="615.36,-330.11 624.49,-324.73 614,-323.24 615.36,-330.11"/>
</g>
<!-- n5 -->
<g id="node4" class="node">
<title>n5</title>
<polygon fill="lightyellow" stroke="black" points="353.5,-180 147.75,-180 147.75,-144 353.5,-144 353.5,-180"/>
<text xml:space="preserve" text-anchor="middle" x="250.62" y="-157.32" font-family="Courier,monospace" font-size="14.00">[IN] i0, i1 : std_logic</text>
</g>
<!-- n4 -->
<g id="node5" class="node">
<title>n4</title>
<polygon fill="white" stroke="black" points="397.62,-252 343.62,-252 343.62,-216 397.62,-216 397.62,-252"/>
<text xml:space="preserve" text-anchor="middle" x="370.62" y="-229.32" font-family="Courier,monospace" font-size="14.00">PORT</text>
</g>
<!-- n4&#45;&gt;n5 -->
<g id="edge3" class="edge">
<title>n4&#45;&gt;n5</title>
<path fill="none" stroke="black" d="M343.4,-217.12C327.67,-207.94 307.62,-196.25 290.18,-186.07"/>
<polygon fill="black" stroke="black" points="291.98,-183.07 281.58,-181.05 288.45,-189.12 291.98,-183.07"/>
</g>
<!-- n6 -->
<g id="node6" class="node">
<title>n6</title>
<polygon fill="lightyellow" stroke="black" points="552.12,-180 371.12,-180 371.12,-144 552.12,-144 552.12,-180"/>
<text xml:space="preserve" text-anchor="middle" x="461.62" y="-157.32" font-family="Courier,monospace" font-size="14.00">[OUT] eq : std_logic</text>
</g>
<!-- n4&#45;&gt;n6 -->
<g id="edge4" class="edge">
<title>n4&#45;&gt;n6</title>
<path fill="none" stroke="black" d="M393.12,-215.7C404.28,-207.11 417.94,-196.61 430.12,-187.24"/>
<polygon fill="black" stroke="black" points="432.08,-190.14 437.87,-181.27 427.81,-184.59 432.08,-190.14"/>
</g>
<!-- n3&#45;&gt;n4 -->
<g id="edge5" class="edge">
<title>n3&#45;&gt;n4</title>
<path fill="none" stroke="black" d="M437.62,-287.7C426.71,-279.11 413.35,-268.61 401.44,-259.24"/>
<polygon fill="black" stroke="black" points="403.89,-256.71 393.87,-253.28 399.57,-262.22 403.89,-256.71"/>
</g>
<!-- n8 -->
<g id="node9" class="node">
<title>n8</title>
<polygon fill="lightcyan" stroke="black" points="645.88,-252 415.38,-252 415.38,-216 645.88,-216 645.88,-252"/>
<text xml:space="preserve" text-anchor="middle" x="530.62" y="-229.32" font-family="Courier,monospace" font-size="14.00">Signal: p0, p1 : std_logic</text>
</g>
<!-- n7&#45;&gt;n8 -->
<g id="edge8" class="edge">
<title>n7&#45;&gt;n8</title>
<path fill="none" stroke="black" d="M667.92,-287.52C643.26,-278.08 612.63,-266.37 586.55,-256.39"/>
<polygon fill="black" stroke="black" points="588.07,-253.23 577.48,-252.92 585.57,-259.76 588.07,-253.23"/>
</g>
<!-- n9 -->
<g id="node10" class="node">
<title>n9</title>
<polygon fill="lavender" stroke="black" points="762.88,-252 664.38,-252 664.38,-216 762.88,-216 762.88,-252"/>
<text xml:space="preserve" text-anchor="middle" x="713.62" y="-229.32" font-family="Courier,monospace" font-size="14.00">Assign: eq</text>
</g>
<!-- n7&#45;&gt;n9 -->
<g id="edge9" class="edge">
<title>n7&#45;&gt;n9</title>
<path fill="none" stroke="black" d="M713.62,-287.7C713.62,-280.41 713.62,-271.73 713.62,-263.54"/>
<polygon fill="black" stroke="black" points="717.13,-263.62 713.63,-253.62 710.13,-263.62 717.13,-263.62"/>
</g>
<!-- n13 -->
<g id="node14" class="node">
<title>n13</title>
<polygon fill="lavender" stroke="black" points="879.88,-252 781.38,-252 781.38,-216 879.88,-216 879.88,-252"/>
<text xml:space="preserve" text-anchor="middle" x="830.62" y="-229.32" font-family="Courier,monospace" font-size="14.00">Assign: p0</text>
</g>
<!-- n7&#45;&gt;n13 -->
<g id="edge13" class="edge">
<title>n7&#45;&gt;n13</title>
<path fill="none" stroke="black" d="M742.85,-287.52C757.76,-278.6 776.09,-267.63 792.13,-258.03"/>
<polygon fill="black" stroke="black" points="793.69,-261.18 800.48,-253.04 790.1,-255.17 793.69,-261.18"/>
</g>
<!-- n19 -->
<g id="node20" class="node">
<title>n19</title>
<polygon fill="lavender" stroke="black" points="1003.88,-252 905.38,-252 905.38,-216 1003.88,-216 1003.88,-252"/>
<text xml:space="preserve" text-anchor="middle" x="954.62" y="-229.32" font-family="Courier,monospace" font-size="14.00">Assign: p1</text>
</g>
<!-- n7&#45;&gt;n19 -->
<g id="edge19" class="edge">
<title>n7&#45;&gt;n19</title>
<path fill="none" stroke="black" d="M773.82,-287.52C810.62,-276.83 857.53,-263.2 894.34,-252.51"/>
<polygon fill="black" stroke="black" points="894.85,-256.01 903.48,-249.86 892.9,-249.28 894.85,-256.01"/>
</g>
<!-- n10 -->
<g id="node12" class="node">
<title>n10</title>
<ellipse fill="none" stroke="black" stroke-dasharray="5,2" cx="700.62" cy="-162" rx="27" ry="18"/>
<text xml:space="preserve" text-anchor="middle" x="700.62" y="-157.32" font-family="Courier,monospace" font-size="14.00">OR</text>
</g>
<!-- n9&#45;&gt;n10 -->
<g id="edge12" class="edge">
<title>n9&#45;&gt;n10</title>
<path fill="none" stroke="black" d="M710.41,-215.7C709.04,-208.32 707.41,-199.52 705.87,-191.25"/>
<polygon fill="black" stroke="black" points="709.35,-190.79 704.08,-181.59 702.46,-192.06 709.35,-190.79"/>
</g>
<!-- n11 -->
<g id="node11" class="node">
<title>n11</title>
<ellipse fill="none" stroke="black" stroke-dasharray="5,2" cx="590.62" cy="-90" rx="45.95" ry="18"/>
<text xml:space="preserve" text-anchor="middle" x="590.62" y="-85.33" font-family="Courier,monospace" font-size="14.00">ID: p0</text>
</g>
<!-- n10&#45;&gt;n11 -->
<g id="edge10" class="edge">
<title>n10&#45;&gt;n11</title>
<path fill="none" stroke="black" d="M681.46,-148.81C665.42,-138.6 642.18,-123.81 623.22,-111.74"/>
<polygon fill="black" stroke="black" points="625.35,-108.95 615.04,-106.53 621.59,-114.86 625.35,-108.95"/>
</g>
<!-- n12 -->
<g id="node13" class="node">
<title>n12</title>
<ellipse fill="none" stroke="black" stroke-dasharray="5,2" cx="700.62" cy="-90" rx="45.95" ry="18"/>
<text xml:space="preserve" text-anchor="middle" x="700.62" y="-85.33" font-family="Courier,monospace" font-size="14.00">ID: p1</text>
</g>
<!-- n10&#45;&gt;n12 -->
<g id="edge11" class="edge">
<title>n10&#45;&gt;n12</title>
<path fill="none" stroke="black" d="M700.62,-143.7C700.62,-136.41 700.62,-127.73 700.62,-119.54"/>
<polygon fill="black" stroke="black" points="704.13,-119.62 700.63,-109.62 697.13,-119.62 704.13,-119.62"/>
</g>
<!-- n14 -->
<g id="node17" class="node">
<title>n14</title>
<ellipse fill="none" stroke="black" stroke-dasharray="5,2" cx="830.62" cy="-162" rx="28.59" ry="18"/>
<text xml:space="preserve" text-anchor="middle" x="830.62" y="-157.32" font-family="Courier,monospace" font-size="14.00">AND</text>
</g>
<!-- n13&#45;&gt;n14 -->
<g id="edge18" class="edge">
<title>n13&#45;&gt;n14</title>
<path fill="none" stroke="black" d="M830.62,-215.7C830.62,-208.41 830.62,-199.73 830.62,-191.54"/>
<polygon fill="black" stroke="black" points="834.13,-191.62 830.63,-181.62 827.13,-191.62 834.13,-191.62"/>
</g>
<!-- n16 -->
<g id="node15" class="node">
<title>n16</title>
<ellipse fill="none" stroke="black" stroke-dasharray="5,2" cx="775.62" cy="-18" rx="45.95" ry="18"/>
<text xml:space="preserve" text-anchor="middle" x="775.62" y="-13.32" font-family="Courier,monospace" font-size="14.00">ID: i0</text>
</g>
<!-- n15 -->
<g id="node16" class="node">
<title>n15</title>
<ellipse fill="none" stroke="black" stroke-dasharray="5,2" cx="793.62" cy="-90" rx="28.59" ry="18"/>
<text xml:space="preserve" text-anchor="middle" x="793.62" y="-85.33" font-family="Courier,monospace" font-size="14.00">NOT</text>
</g>
<!-- n15&#45;&gt;n16 -->
<g id="edge14" class="edge">
<title>n15&#45;&gt;n16</title>
<path fill="none" stroke="black" d="M789.27,-72.05C787.35,-64.6 785.05,-55.64 782.88,-47.22"/>
<polygon fill="black" stroke="black" points="786.32,-46.55 780.44,-37.74 779.54,-48.3 786.32,-46.55"/>
</g>
<!-- n14&#45;&gt;n15 -->
<g id="edge15" class="edge">
<title>n14&#45;&gt;n15</title>
<path fill="none" stroke="black" d="M821.86,-144.41C817.62,-136.39 812.42,-126.57 807.65,-117.54"/>
<polygon fill="black" stroke="black" points="810.81,-116.01 803.04,-108.81 804.62,-119.28 810.81,-116.01"/>
</g>
<!-- n17 -->
<g id="node19" class="node">
<title>n17</title>
<ellipse fill="none" stroke="black" stroke-dasharray="5,2" cx="868.62" cy="-90" rx="28.59" ry="18"/>
<text xml:space="preserve" text-anchor="middle" x="868.62" y="-85.33" font-family="Courier,monospace" font-size="14.00">NOT</text>
</g>
<!-- n14&#45;&gt;n17 -->
<g id="edge17" class="edge">
<title>n14&#45;&gt;n17</title>
<path fill="none" stroke="black" d="M839.63,-144.41C843.98,-136.39 849.32,-126.57 854.22,-117.54"/>
<polygon fill="black" stroke="black" points="857.27,-119.26 858.96,-108.8 851.12,-115.92 857.27,-119.26"/>
</g>
<!-- n18 -->
<g id="node18" class="node">
<title>n18</title>
<ellipse fill="none" stroke="black" stroke-dasharray="5,2" cx="885.62" cy="-18" rx="45.95" ry="18"/>
<text xml:space="preserve" text-anchor="middle" x="885.62" y="-13.32" font-family="Courier,monospace" font-size="14.00">ID: i1</text>
</g>
<!-- n17&#45;&gt;n18 -->
<g id="edge16" class="edge">
<title>n17&#45;&gt;n18</title>
<path fill="none" stroke="black" d="M872.83,-71.7C874.62,-64.32 876.75,-55.52 878.76,-47.25"/>
<polygon fill="black" stroke="black" points="882.15,-48.12 881.11,-37.58 875.35,-46.47 882.15,-48.12"/>
</g>
<!-- n20 -->
<g id="node22" class="node">
<title>n20</title>
<ellipse fill="none" stroke="black" stroke-dasharray="5,2" cx="961.62" cy="-162" rx="28.59" ry="18"/>
<text xml:space="preserve" text-anchor="middle" x="961.62" y="-157.32" font-family="Courier,monospace" font-size="14.00">AND</text>
</g>
<!-- n19&#45;&gt;n20 -->
<g id="edge22" class="edge">
<title>n19&#45;&gt;n20</title>
<path fill="none" stroke="black" d="M956.36,-215.7C957.08,-208.41 957.95,-199.73 958.77,-191.54"/>
<polygon fill="black" stroke="black" points="962.25,-191.91 959.76,-181.61 955.29,-191.21 962.25,-191.91"/>
</g>
<!-- n21 -->
<g id="node21" class="node">
<title>n21</title>
<ellipse fill="none" stroke="black" stroke-dasharray="5,2" cx="961.62" cy="-90" rx="45.95" ry="18"/>
<text xml:space="preserve" text-anchor="middle" x="961.62" y="-85.33" font-family="Courier,monospace" font-size="14.00">ID: i0</text>
</g>
<!-- n20&#45;&gt;n21 -->
<g id="edge20" class="edge">
<title>n20&#45;&gt;n21</title>
<path fill="none" stroke="black" d="M961.62,-143.7C961.62,-136.41 961.62,-127.73 961.62,-119.54"/>
<polygon fill="black" stroke="black" points="965.13,-119.62 961.63,-109.62 958.13,-119.62 965.13,-119.62"/>
</g>
<!-- n22 -->
<g id="node23" class="node">
<title>n22</title>
<ellipse fill="none" stroke="black" stroke-dasharray="5,2" cx="1071.62" cy="-90" rx="45.95" ry="18"/>
<text xml:space="preserve" text-anchor="middle" x="1071.62" y="-85.33" font-family="Courier,monospace" font-size="14.00">ID: i1</text>
</g>
<!-- n20&#45;&gt;n22 -->
<g id="edge21" class="edge">
<title>n20&#45;&gt;n22</title>
<path fill="none" stroke="black" d="M981.29,-148.49C997.22,-138.35 1019.99,-123.86 1038.69,-111.96"/>
<polygon fill="black" stroke="black" points="1040.48,-114.97 1047.04,-106.65 1036.72,-109.06 1040.48,-114.97"/>
</g>
</g>
</svg>
